<svg xmlns="http://www.w3.org/2000/svg" viewBox="0 0 685.69 385.81"><g id="Layer_2" data-name="Layer 2"><g id="Layer_1-2" data-name="Layer 1"><g id="_1637156994171" data-name="1637156994171"><g style="isolation:isolate"><g style="isolation:isolate"><path d="M122.06,337.79H99.8v14.27h18.61a5.6,5.6,0,0,1,3.86,1.16,4,4,0,0,1,1.28,3.1,3.9,3.9,0,0,1-1.3,3.08,5.6,5.6,0,0,1-3.84,1.15H99.8v18.38a7.41,7.41,0,0,1-1.58,5.19,5.72,5.72,0,0,1-8.14,0,7.37,7.37,0,0,1-1.58-5.17V336a9.48,9.48,0,0,1,.72-4,4.52,4.52,0,0,1,2.26-2.24,9.51,9.51,0,0,1,3.94-.71h26.64a5.82,5.82,0,0,1,4,1.2,4.07,4.07,0,0,1,1.31,3.14,4.12,4.12,0,0,1-1.31,3.18A5.82,5.82,0,0,1,122.06,337.79Z" style="fill:#40832b"/><path d="M171,364.69a24.47,24.47,0,0,1-1.45,8.57,19,19,0,0,1-4.18,6.73,18.44,18.44,0,0,1-6.55,4.32,23.19,23.19,0,0,1-8.56,1.5,22.38,22.38,0,0,1-8.49-1.52,18.72,18.72,0,0,1-10.71-11.05,24.58,24.58,0,0,1-1.43-8.55,24.84,24.84,0,0,1,1.45-8.63,18.7,18.7,0,0,1,4.15-6.7,18.27,18.27,0,0,1,6.54-4.28,24.67,24.67,0,0,1,17,0,18.32,18.32,0,0,1,10.75,11A24.68,24.68,0,0,1,171,364.69Zm-10.43,0q0-6.35-2.79-9.89a9.11,9.11,0,0,0-7.52-3.54,9.35,9.35,0,0,0-5.37,1.58,10,10,0,0,0-3.57,4.66,18.92,18.92,0,0,0-1.26,7.19,18.72,18.72,0,0,0,1.24,7.12,10.14,10.14,0,0,0,3.54,4.66,9.78,9.78,0,0,0,12.94-1.94Q160.57,371,160.57,364.69Z" style="fill:#40832b"/><path d="M218.07,364.69a24.7,24.7,0,0,1-1.44,8.57,19,19,0,0,1-4.19,6.73,18.49,18.49,0,0,1-6.54,4.32,23.24,23.24,0,0,1-8.57,1.5,22.36,22.36,0,0,1-8.48-1.52,18.7,18.7,0,0,1-10.72-11.05,24.58,24.58,0,0,1-1.42-8.55,24.84,24.84,0,0,1,1.44-8.63,18.83,18.83,0,0,1,4.15-6.7,18.22,18.22,0,0,1,6.55-4.28,24.67,24.67,0,0,1,17.05,0,18.39,18.39,0,0,1,10.75,11A24.68,24.68,0,0,1,218.07,364.69Zm-10.42,0q0-6.35-2.8-9.89a9.09,9.09,0,0,0-7.52-3.54,9.3,9.3,0,0,0-5.36,1.58,10,10,0,0,0-3.58,4.66,21.1,21.1,0,0,0,0,14.31,10.21,10.21,0,0,0,3.54,4.66,9.78,9.78,0,0,0,12.94-1.94Q207.64,371,207.65,364.69Z" style="fill:#40832b"/><path d="M254.72,379.88v-1a26.3,26.3,0,0,1-4.13,3.9,15.68,15.68,0,0,1-4.41,2.28,16.63,16.63,0,0,1-5.2.78,15.22,15.22,0,0,1-6.91-1.58,16.08,16.08,0,0,1-5.49-4.5,20.41,20.41,0,0,1-3.52-6.89,29.39,29.39,0,0,1-1.2-8.57q0-9.74,4.75-15.18a15.82,15.82,0,0,1,12.52-5.44,16.81,16.81,0,0,1,7.58,1.54,21.2,21.2,0,0,1,6,4.74V334.59a7.75,7.75,0,0,1,1.27-4.83,4.34,4.34,0,0,1,3.64-1.64,4.48,4.48,0,0,1,3.63,1.51,6.69,6.69,0,0,1,1.28,4.43v45.82a6.37,6.37,0,0,1-1.37,4.45,4.61,4.61,0,0,1-3.54,1.48,4.52,4.52,0,0,1-3.52-1.54A6.3,6.3,0,0,1,254.72,379.88Zm-20.44-15.26a17.65,17.65,0,0,0,1.32,7.19,10,10,0,0,0,3.59,4.47,8.91,8.91,0,0,0,5,1.5,9.21,9.21,0,0,0,5-1.42A9.79,9.79,0,0,0,252.8,372a17.66,17.66,0,0,0,1.35-7.36,17.23,17.23,0,0,0-1.35-7.14,10.66,10.66,0,0,0-3.66-4.56A8.86,8.86,0,0,0,239,353a10.41,10.41,0,0,0-3.48,4.65A18.49,18.49,0,0,0,234.28,364.62Z" style="fill:#40832b"/><path d="M280.22,338.74a5.45,5.45,0,0,1-3.71-1.33,5.15,5.15,0,0,1,0-7.4,5.34,5.34,0,0,1,3.68-1.43,5.44,5.44,0,0,1,3.57,1.29,4.63,4.63,0,0,1,1.56,3.77,4.73,4.73,0,0,1-1.52,3.75A5.26,5.26,0,0,1,280.22,338.74Zm5.13,10.73v30a6.71,6.71,0,0,1-1.48,4.72,4.94,4.94,0,0,1-3.77,1.59,4.69,4.69,0,0,1-3.71-1.63A6.91,6.91,0,0,1,275,379.5V349.78a6.69,6.69,0,0,1,1.43-4.65,4.8,4.8,0,0,1,3.71-1.56,5,5,0,0,1,3.77,1.56A6,6,0,0,1,285.35,349.47Z" style="fill:#40832b"/><path d="M325.08,367.24H304.76a13.8,13.8,0,0,0,1.43,6.24,9.54,9.54,0,0,0,8.77,5.45,12.57,12.57,0,0,0,3.41-.44,11.09,11.09,0,0,0,3-1.37,22.93,22.93,0,0,0,2.67-2q1.22-1.06,3.15-2.89a3.42,3.42,0,0,1,2.29-.69,3.8,3.8,0,0,1,2.59.88,3.12,3.12,0,0,1,1,2.47,6.7,6.7,0,0,1-1.11,3.29,12.79,12.79,0,0,1-3.33,3.62,19,19,0,0,1-5.59,2.87,24.17,24.17,0,0,1-7.75,1.14q-10,0-15.56-5.7t-5.56-15.49a26,26,0,0,1,1.37-8.55,19,19,0,0,1,4-6.75A17.29,17.29,0,0,1,306,345a23.24,23.24,0,0,1,8.52-1.5A20.17,20.17,0,0,1,325,346.07a16.91,16.91,0,0,1,6.53,6.64,17.5,17.5,0,0,1,2.16,8.29c0,2.62-.74,4.31-2.24,5.08A13.92,13.92,0,0,1,325.08,367.24Zm-20.32-5.89H323.6c-.26-3.56-1.21-6.21-2.88-8a8.6,8.6,0,0,0-6.56-2.64,8.29,8.29,0,0,0-6.37,2.68C306.12,355.2,305.12,357.84,304.76,361.35Z" style="fill:#40832b"/><path d="M350.43,348.94h-7.88l-2-10.47v-9.4h11.68v9.4Z" style="fill:#40832b"/><path d="M394.57,372.23a12,12,0,0,1-8.28,12,27.51,27.51,0,0,1-10,1.58,24.32,24.32,0,0,1-9.59-1.71,14,14,0,0,1-5.9-4.28,8.61,8.61,0,0,1-1.9-5.16,4,4,0,0,1,1.22-2.93,4.17,4.17,0,0,1,3.08-1.21,3.6,3.6,0,0,1,2.51.79,9,9,0,0,1,1.68,2.25,11.36,11.36,0,0,0,3.82,4.15,11.59,11.59,0,0,0,6.07,1.37,8.74,8.74,0,0,0,5.12-1.39,3.93,3.93,0,0,0,2-3.18,4.3,4.3,0,0,0-2.08-4,25.48,25.48,0,0,0-6.83-2.4,56.11,56.11,0,0,1-8.73-2.8,14.31,14.31,0,0,1-5.39-3.86,8.87,8.87,0,0,1-2-5.9,10.42,10.42,0,0,1,1.86-5.9,12.77,12.77,0,0,1,5.5-4.43,21.11,21.11,0,0,1,8.77-1.66,28.7,28.7,0,0,1,7.25.84,18.12,18.12,0,0,1,5.37,2.25,11.17,11.17,0,0,1,3.27,3.12,6.06,6.06,0,0,1,1.12,3.35,3.88,3.88,0,0,1-1.2,2.93,4.74,4.74,0,0,1-3.4,1.14,4.16,4.16,0,0,1-2.72-.92,17.17,17.17,0,0,1-2.57-2.74,9.45,9.45,0,0,0-2.78-2.43,8.72,8.72,0,0,0-4.34-.92,8.47,8.47,0,0,0-4.68,1.2,3.51,3.51,0,0,0-1.86,3,3.2,3.2,0,0,0,1.37,2.68,11.33,11.33,0,0,0,3.69,1.74q2.32.68,6.39,1.67a34.55,34.55,0,0,1,7.9,2.82,13,13,0,0,1,4.64,3.86A8.58,8.58,0,0,1,394.57,372.23Z" style="fill:#40832b"/><path d="M445.22,363.13H434.87v15.8a7.32,7.32,0,0,1-1.6,5.13,5.63,5.63,0,0,1-8.14,0,7.35,7.35,0,0,1-1.56-5.08V336q0-3.72,1.71-5.33c1.14-1.06,3-1.6,5.44-1.6h14.5a37.88,37.88,0,0,1,9.89,1,14.78,14.78,0,0,1,5.92,3.16,14.26,14.26,0,0,1,3.79,5.41,19,19,0,0,1,1.29,7.19q0,8.52-5.25,12.92T445.22,363.13Zm-2.74-25.57h-7.61v17.05h7.61a22.7,22.7,0,0,0,6.68-.84,7.78,7.78,0,0,0,4.09-2.74,8.17,8.17,0,0,0,1.41-5,8.5,8.5,0,0,0-2.17-6Q450.06,337.57,442.48,337.56Z" style="fill:#40832b"/><path d="M474.83,379.5V334.44a7,7,0,0,1,1.39-4.72,4.71,4.71,0,0,1,3.74-1.6,4.93,4.93,0,0,1,3.81,1.58,6.86,6.86,0,0,1,1.45,4.74V379.5a6.72,6.72,0,0,1-1.47,4.73,4.91,4.91,0,0,1-3.79,1.58,4.7,4.7,0,0,1-3.71-1.63A6.91,6.91,0,0,1,474.83,379.5Z" style="fill:#40832b"/><path d="M522.2,380a32.16,32.16,0,0,1-7.28,4.4,20.33,20.33,0,0,1-7.9,1.46,14.89,14.89,0,0,1-7-1.58,11.44,11.44,0,0,1-4.66-4.28,11.1,11.1,0,0,1-1.64-5.86,10.51,10.51,0,0,1,2.7-7.27,13.58,13.58,0,0,1,7.42-4c.66-.15,2.3-.49,4.91-1s4.85-1,6.72-1.46,3.89-1,6.07-1.62q-.19-4.11-1.66-6c-1-1.28-3-1.92-6.07-1.92a12.72,12.72,0,0,0-5.95,1.1,9.82,9.82,0,0,0-3.43,3.31q-1.43,2.21-2,2.91a3.32,3.32,0,0,1-2.53.71,4.47,4.47,0,0,1-3-1.12,3.66,3.66,0,0,1-1.27-2.88,8.78,8.78,0,0,1,1.94-5.33,13.92,13.92,0,0,1,6.05-4.26,27.37,27.37,0,0,1,10.23-1.67q6.86,0,10.77,1.61a10,10,0,0,1,5.54,5.12,22.38,22.38,0,0,1,1.62,9.29q0,3.64,0,6.2t-.06,5.67a21.11,21.11,0,0,0,1,6.11,19.07,19.07,0,0,1,1,4.09,3.81,3.81,0,0,1-1.5,2.91,5,5,0,0,1-3.41,1.31,4.61,4.61,0,0,1-3.16-1.5A22.18,22.18,0,0,1,522.2,380Zm-.68-15a51.83,51.83,0,0,1-6.64,1.77q-4.36.93-6,1.37a8.2,8.2,0,0,0-3.2,1.71,4.41,4.41,0,0,0-1.52,3.56,5.25,5.25,0,0,0,1.79,4A6.62,6.62,0,0,0,510.6,379a12.21,12.21,0,0,0,5.69-1.35,9,9,0,0,0,3.82-3.48q1.41-2.35,1.41-7.76Z" style="fill:#40832b"/><path d="M579.51,373a8.87,8.87,0,0,1-1.16,4.15,14.26,14.26,0,0,1-3.54,4.21,18.21,18.21,0,0,1-6,3.21,25.45,25.45,0,0,1-8.14,1.22q-9.63,0-15-5.61t-5.41-15.06a24.79,24.79,0,0,1,2.48-11.3,17.72,17.72,0,0,1,7.15-7.59,24.34,24.34,0,0,1,18.59-1.5,19.2,19.2,0,0,1,5.71,3,14.78,14.78,0,0,1,3.58,4,7.91,7.91,0,0,1,1.23,3.94,4.16,4.16,0,0,1-1.39,3.16,4.76,4.76,0,0,1-3.37,1.29,3.34,3.34,0,0,1-2.14-.67,10.16,10.16,0,0,1-1.93-2.15,15.8,15.8,0,0,0-4-4.33,9.76,9.76,0,0,0-12.69,2.15q-2.82,3.59-2.82,9.83a19.1,19.1,0,0,0,.72,5.39,12.08,12.08,0,0,0,2.1,4.18,8.87,8.87,0,0,0,3.31,2.63,10,10,0,0,0,4.26.89,9.66,9.66,0,0,0,5.35-1.44,12.72,12.72,0,0,0,3.93-4.42,10.31,10.31,0,0,1,2.06-2.74,3.9,3.9,0,0,1,2.7-1,4,4,0,0,1,3.16,1.45A4.6,4.6,0,0,1,579.51,373Z" style="fill:#40832b"/><path d="M617.57,367.24H597.25a13.79,13.79,0,0,0,1.42,6.24,9.56,9.56,0,0,0,8.78,5.45,12.44,12.44,0,0,0,3.4-.44,11,11,0,0,0,3-1.37,22.8,22.8,0,0,0,2.66-2q1.23-1.06,3.16-2.89a3.42,3.42,0,0,1,2.29-.69,3.77,3.77,0,0,1,2.58.88,3.12,3.12,0,0,1,1,2.47,6.78,6.78,0,0,1-1.1,3.29,13.09,13.09,0,0,1-3.33,3.62,19,19,0,0,1-5.59,2.87,24.17,24.17,0,0,1-7.75,1.14q-10,0-15.56-5.7t-5.56-15.49a26,26,0,0,1,1.37-8.55,18.86,18.86,0,0,1,4-6.75,17.21,17.21,0,0,1,6.47-4.32,23.24,23.24,0,0,1,8.52-1.5,20.17,20.17,0,0,1,10.45,2.57,16.82,16.82,0,0,1,6.52,6.64,17.4,17.4,0,0,1,2.17,8.29q0,3.93-2.24,5.08A13.94,13.94,0,0,1,617.57,367.24Zm-20.32-5.89h18.83c-.25-3.56-1.21-6.21-2.87-8a8.6,8.6,0,0,0-6.56-2.64,8.31,8.31,0,0,0-6.38,2.68C598.61,355.2,597.6,357.84,597.25,361.35Z" style="fill:#40832b"/></g></g></g><path d="M284.89,200.71,277.53,203c-1.27-2.51-.13-5.18.92-7.58s2.09-4.56.77-7.36a3.15,3.15,0,0,1,1.83-4.43h1c-.54,2.36,1.11,3.61,2.51,5q9.84,9.8,19.63,19.63a7.37,7.37,0,0,1,.84,1.32c-.67.93-1.32,1.84-2,2.85l1.56,3c2.58,8.72,7.53,15.65,15.53,20.19a7.16,7.16,0,0,0,8-.38c.95-.65,1.92-1.28,2.89-1.91l1.05,4.12c-2.87,3.51-5.74,7-10,9H296.6v1.08h18.24l.17,3.9c-2.48,1.23-4.67,2.95-7,4.32-3.44,2-6.8,4.45-11,4.7l-12-.08a15.46,15.46,0,0,1-8.72-2.52c-.5-2.21.81-3.12,2.33-3.32,4.08-.53,8.2-.79,12.3-1.16,1.67-.15,3.69.81,4.94-1.94h-4.92c-.92-2.11-.92-2.11.62-4.1-3.08-1.29-6.33-2.36-9.3-4a18.31,18.31,0,0,1-7.88-8.69q-15.27-33-30.56-66c-.72-1.57-1.57-3.08-2.65-5.19,3.38.94,4.41,3.48,5.91,5.46,1.65,2.17,3.27,4.27,6.62,3.78.8,5.83.93,11.63,3.88,16.8l4.44.24,11.64,14.53c-2.6,1-6.24.62-7.52,4.29l8.15,7L271,218.29c1,5.07,2.61,9.75,6.35,13.24a22.48,22.48,0,0,0,6.95,4.55c4.92,1.95,9.36-.28,10.89-5.43,1.16-3.88,2.13-7.93.82-12a17.63,17.63,0,0,0-.87-3.61c-1.52-3.15-3-3.24-6.07-.54l-3,.13c.33-2.12.63-4.05.94-6a38,38,0,0,0,2.69-4.37c.8-1.81.07-3.08-1.92-3.54A12.69,12.69,0,0,0,284.89,200.71ZM294.78,248l-.31-.19,0,.32Z" style="fill:#a8801d"/><path d="M234.43,34.15a42,42,0,0,1,5.44-19.33,14.5,14.5,0,0,1,19.69-5.88c6.68,3.62,11.25,9.23,15.31,15.32A88.74,88.74,0,0,1,279.43,33a31,31,0,0,1-5.7,1.09C260.63,34.21,247.53,34.16,234.43,34.15Z" style="fill:#ad8621"/><path d="M119.25,273.09c-10.89.76-21.79,2.2-32.68,2.13A211.24,211.24,0,0,1,45.11,271a121.13,121.13,0,0,1-24.4-7.54,46.32,46.32,0,0,1-15-10.28A19.51,19.51,0,0,1,0,240.28a15.15,15.15,0,0,1,6.62-13.69c5.63-4,12.13-5.39,18.76-5.81a185.14,185.14,0,0,1,41.2,2c4.29.69,8.5,1.86,12.75,2.82l-.09,2.24c-10.7-2-21.35-4.09-32.3-4.79a86.55,86.55,0,0,0-27.45,2.59A22.52,22.52,0,0,0,8.43,232a14,14,0,0,0-1.35,18.14c3.84,5.5,9.67,8.58,15.55,10.64,7.86,2.75,15.88,5.3,24.4,5.94,11.85.89,23.63,3,35.48,3.52,12.22.5,24.5-.33,36.76-.57Z" style="fill:#b18b26"/><path d="M237.93,65.15c-2.49-5.06-3-10.54-3.44-16l51-.12c1.74,5.31,2.46,10.65.53,16.08Z" style="fill:#be9a2c"/><path d="M381.91,179.7,386,179l3.24.78c2.41-5,1.6-9.75,1.49-14.43l-.63-7.57,1.14-.17,1.45,0,2.56.13c1.94-5.33,3.62-10.77,8.71-15.17.39,2.81.69,5,1,7.23v11h4.89l-.15,2-.58,1.37a.89.89,0,0,1-.11.64c-.54.35-1.33.57-1.57,1.06-2.14,4.4-4.25,8.82-6.2,13.31-.39.91-.06,2.13-.06,3.57h4.61a6,6,0,0,1,1.83,6.73,5.13,5.13,0,0,0,.65,5,11.77,11.77,0,0,1,1.36,8.63L403,200.66l-3.05,0a24.47,24.47,0,0,0-2.57-4c-4.23-4.39-8.64-8.6-12.87-13A23.72,23.72,0,0,1,381.91,179.7Z" style="fill:#a8801d"/><path d="M285.51,49l-51,.12-.06-15c13.1,0,26.2.06,39.3,0a31,31,0,0,0,5.7-1.09A51.14,51.14,0,0,1,285.51,49Z" style="fill:#b69125"/><path d="M395.5,247.56l2.8,2.43c-1.19.82-2.06,1.41-3,2.06.16.2.38.78.68.82,1.92.27,3.86.37,5.78.62a52.85,52.85,0,0,1,7.22,1.23,3.47,3.47,0,0,1,1.84,2.45c.09.56-1.05,1.74-1.82,1.94a35.64,35.64,0,0,1-7.22,1.23c-4.28.2-8.57.07-12.85.07l-2.38-1.05-.4,1,2.82,1,3,1.07-1,5.79c-4.24-1.73-8.64-3.17-12.68-5.28-3.48-1.82-6.88-3-10.82-2.62a23.61,23.61,0,0,1-3.46-.13c0-.27,0-.54,0-.81l-1.05-6.05-4.94-.95c.09-2.78-.19-5.41-3-7l-4-6c-3.53-4-5.14-9-7-13.94a8.33,8.33,0,0,1,2.15,1.44c1.67,2.14,3.19,4.39,4.76,6.6,2.44,5.11,6.95,8.3,11.1,11.82a3.68,3.68,0,0,0,.93.1c.87,2.24,2.8,1.93,4.62,1.93l27.36,0,.31.09Z" style="fill:#a8801d"/><path d="M342.92,41.15c.68,3.16-.79,6.62,1.31,9.77l3-1.5c0-6,0-12.11,0-18.22,0-8.45,0-16.89,0-25.34,0-1.52-.55-3.31,1.56-4.72.2,5.83,2.33,11.08,1.32,16.7-.27,1.5.52,3.17.62,4.78.2,3.06.19,6.14.4,9.21.25,3.73.69,7.45,1,11.19.11,1.58-.23,3.22.05,4.76.17.91,1.14,1.67,2.27,3.2,2.67-5.68.8-10.79,1.2-15.7l6.25-.11L364,54.1l-37.61,0c.24-3.07.32-6.17.77-9.21.82-5.58,1.87-11.13,2.82-16.69h5.31c.09,3.27.41,6.56.21,9.81-.19,3.06-.93,6.08-1.4,9.12-.2,1.31-.17,1.32,3.14,3,.56-3.13,1.09-6.08,1.62-9Z" style="fill:#bb972b"/><path d="M237.93,65.15,286,65.07c-.32,4.13-2.42,7.47-5,10.47-2,2.36-4.42,4.44-6.65,6.65-.73-.37-1.46-1-2.2-1-4.93-.11-9.87-.2-14.8,0-1.11,0-2.17,1.19-3.25,1.83C245.51,79.92,240.32,73.8,237.93,65.15Z" style="fill:#c6a432"/><path d="M510.3,253.21l.3-1.7,3.23-1.09a8,8,0,0,0,6.08.27c13.43-4.28,27-8.29,40.44-12.35,1.41-.42,2.87-.64,4.31-1,.33,1.38.66,2.76,1,4.15-1.19.57-2.34,1.25-3.57,1.7q-18.08,6.6-36.18,13.15c-.72.27-1.39.68-3,1.5,5.59,2.11,10.25,4,15,5.63,10.95,3.83,22.41,5.2,33.8,6.83v3.08a133.84,133.84,0,0,1-49.48-11.7,12.14,12.14,0,0,0-9.45-.56c0-1.91-.06-3.82,0-5.72S511.58,253.45,510.3,253.21Z" style="fill:#c2a034"/><path d="M136.3,242.37c3.49.86,7,1.62,10.46,2.6,6.62,1.9,13.26,3.78,19.78,6A5.44,5.44,0,0,0,172,250c3-2.28,6-4.62,9-6.94l1.83,1.71-7.57,7.64,5.94,2.18c0,2.93,0,5.87,0,8.8l-9.46-2.59a11.79,11.79,0,0,0-8.88,1c-5.57,2.71-11.59,4.55-17.52,6.45a96.33,96.33,0,0,1-10.08,2.1l0-3a6.75,6.75,0,0,1,1.73-.8c8.81-1.49,16.93-4.89,25.67-8.91-1.52-.63-2.36-1-3.23-1.34l-24.14-8.89Z" style="fill:#be9a2c"/><path d="M344,225.54c1.81,4.9,3.42,9.89,7,13.94-2.07.43-3.33-.8-4.62-2.13-2-2.07-4.1-4.06-6.41-6.34l-1.9,3.51c-.65,1-1.31,2-2,3l-6,8.94-1,1.93c-3.18.9-3.32,1.2-2,4l-3.54.31a57,57,0,0,0,10,.76,8.28,8.28,0,0,1,2.52.95l-4,0c-1.8,0-3.61.08-5.39-.07-2.56-.21-4.45.6-5.54,3-1.19,1.29-2.33,2.44-4.44,2.1-1.1-.18-2.34.48-3.52.76-8.66,4.49-17.38,8.83-27,10.82v-6.45L297,260.48c4.22-.25,7.58-2.71,11-4.7,2.36-1.37,4.55-3.09,7-4.32l7-5c4.26-2,7.13-5.45,10-9a29,29,0,0,0,3.6-4.44,3,3,0,0,0-1.44-4.5l3.66-8.07,1.16.05C339.07,223.79,341.84,224.34,344,225.54Z" style="fill:#d2b23f"/><path d="M326.35,54.08l37.61,0a13.59,13.59,0,0,1-1,12l-35.26.13C324.75,62.43,326.16,58.19,326.35,54.08Z" style="fill:#c2a034"/><path d="M571.64,273.43v-3.08c14.41-.29,28.81-.81,43.22-.79,7.15,0,14.06-1.44,21-2.39a144.07,144.07,0,0,0,33.29-8.91l1.29,2a112.91,112.91,0,0,1-31.38,11c-9.11,1.68-18.24,3.08-27.55,3.15-8.45.06-16.9.64-25.34.54C581.35,274.92,576.5,274,571.64,273.43Z" style="fill:#d2b23f"/><path d="M436.65,41.14q-2,8.46-4.09,16.93l-25-.06a55.26,55.26,0,0,1,6.32-16.87Z" style="fill:#bb972b"/><path d="M407.53,58l25,.06L428.63,74l-24.77,0Z" style="fill:#c2a034"/><path d="M416.13,219.55l-2.63-4.1,7.38-6.86c-1.16-3.79-5-3-7.42-4.25l11.8-14.48,4.2-.28c3.05-5,3.46-10.39,3.51-16.2,5.06-.2,7-4.61,10.43-8.44.11,1.57.4,2.36.16,2.92q-3.8,8.77-7.77,17.46-5.88,12.84-11.89,25.6c-1.36,2.91-2.83,5.75-4.25,8.63Z" style="fill:#ad8621"/><path d="M510.3,253.21c1.28.24,2.53.42,2.44,2.24s0,3.81,0,5.72a331,331,0,0,1-39,10.08,10.76,10.76,0,0,1-2,0c0-2.81,0-5.63,0-8.44q18-4.68,36.07-9.33A16.6,16.6,0,0,1,510.3,253.21Z" style="fill:#bb972b"/><path d="M436.65,41.14h-22.8a68.5,68.5,0,0,1,9.34-16.94c2.22.34,4.42.82,6.65,1,2.61.17,5.24-.06,7.85.1.79,0,1.53.83,2.29,1.27Z" style="fill:#b18b26"/><path d="M670.49,260.28l-1.29-2c2.11-1.59,4.32-3.06,6.3-4.79,4.75-4.16,8.06-10.53,4.11-18.14-2.41-4.65-6.52-7-11-8.73-8.27-3.26-17.1-3.24-25.79-3.92a8.37,8.37,0,0,0-1.5.06l-20.71,1.89-1.29-1.28a41.11,41.11,0,0,1,16.38-1.91c2.08.13,4.2-.54,6.31-.63,4-.18,8-.16,11.94-.29a48.75,48.75,0,0,1,16.65,2.18,32.57,32.57,0,0,1,8.83,4.35c8.51,6,7.67,18,1.58,25.13A28.07,28.07,0,0,1,670.49,260.28Z" style="fill:#d8bb4d"/><path d="M471.79,262.84c0,2.81,0,5.63,0,8.44-5.2,1-10.36,2.27-15.61,2.75-7.75.72-15.55.83-23.33,1.2q0-3.41,0-6.82c.42-.24.84-.7,1.26-.7C446.89,267.77,459.29,265,471.79,262.84Z" style="fill:#b6912a"/><path d="M248.1,275.24a154.09,154.09,0,0,1-37-4.58l1.08-8.14c4,.69,8,1.47,12.1,2,7.63,1.08,15.28,2,22.92,3.06a3.68,3.68,0,0,1,.9.38Z" style="fill:#c7a637"/><path d="M327.67,66.2l35.26-.13c-.63,3.28-3.58,4.46-5.8,6.28a14.25,14.25,0,0,1-2.85,1.89c-2.51,1.19-4.27,2.84-4.15,5.85l-10-.08c.19-3.09-1.9-4.55-4.15-6C332.75,71.91,329.19,70.12,327.67,66.2Z" style="fill:#c7a637"/><path d="M432.85,268.41q0,3.42,0,6.82c-14.19.89-27.76-2.3-41.2-6.31-.28-.08-.48-.42-.72-.65l1-5.79c4,1,7.91,2,11.88,2.95A109.76,109.76,0,0,0,432.85,268.41Z" style="fill:#b18b26"/><path d="M212.15,262.52l-1.08,8.14a146.81,146.81,0,0,1-29.87-7.26c0-2.93,0-5.87,0-8.8,5.86,1.45,11.72,2.87,17.57,4.36C203.24,260.1,207.69,261.33,212.15,262.52Z" style="fill:#c2a034"/><path d="M136.3,242.37l-1,5a9.08,9.08,0,0,1-1.9-.3c-10.06-3.75-20.06-7.67-30.17-11.28-7.92-2.83-16-5.3-24-7.93l.09-2.24c5,1.08,10.09,1.87,15,3.3,13,3.8,26,7.86,38.91,11.87A19.18,19.18,0,0,1,136.3,242.37Z" style="fill:#bb972b"/><path d="M248.1,275.24l0-7.24c1.45,0,2.89.11,4.33.06,3.6-.12,7.22-.56,10.81-.4,7.81.33,15.31-1.38,22.84-3v6.45A113,113,0,0,1,248.1,275.24Z" style="fill:#ccac3c"/><path d="M440,26.53c-.76-.44-1.5-1.22-2.29-1.27-2.61-.16-5.24.07-7.85-.1-2.23-.14-4.43-.62-6.65-1A69.61,69.61,0,0,1,436.51,8.3c1.91-1.71,4-4.37,6.85-2.7s1.11,4.47.5,6.8C442.61,17.12,441.28,21.82,440,26.53Z" style="fill:#ad8621"/><path d="M403.86,74l24.77,0-2.69,10L402,84Z" style="fill:#ccac3c"/><path d="M304.57,215.5c-.52-1-1-2-1.56-3,.71-1,1.36-1.92,2-2.85a7.37,7.37,0,0,0-.84-1.32q-9.79-9.84-19.63-19.63c-1.4-1.4-3.05-2.65-2.51-5L286,182c-.3-2.38-.62-4.83-.94-7.29,1,1.67,2,3.34,3,5a7.88,7.88,0,0,0,2.84,7.43c3.7,3.3,7,7.05,10.36,10.48l3.63-1c-.55,3.16,1.2,5.29,3.2,7.4,1.63,1.72,4,3,4,6.11l-4.11-.64C306.78,211.61,305.67,213.55,304.57,215.5Z" style="fill:#b6912a"/><path d="M364.24,185.57a11.33,11.33,0,0,1,4.8,7.28c-1.53,1.47-3.05,2.27-5.21,1.17a10.21,10.21,0,0,0-2.87-.53c.3-1.86-.7-3.07-1.94-4.29-6.26-6.18-12.44-12.44-18.73-18.6a14.59,14.59,0,0,0-3.29-1.85c1-2.61-2.26-5.16-.16-8.21,1.18,1,2.19,1.8,3.1,2.69,2.61,2.55,4.87,5.6,7.86,7.53,2.05,1.33,1.84,3.24,2.77,5,3-.56,5.11.8,6.91,3,1.43,1.73,3.06,3.29,4.61,4.92l-.06,0,1,1,0,0Z" style="fill:#c7a637"/><path d="M349.67,220.47c.17,1,.35,1.94.53,2.91-2.29.62-3-1.46-4.4-2.48-2.3-1.72-3.46-4.86-6.73-5.37.21-2.93,0-5.85-3.07-7.18-1.54-.67-3.48-.47-5.24-.48-.23,0-.48,1-.71,1.61H326.8c1.5-3.73,3-6.82,6.07-9,.57-.4.82-1.25,1.22-1.89,4-.74,6.88.92,9.42,3.93a72.51,72.51,0,0,0,6.45,6c-3.12,3.47-1.94,7.56-1.63,11.52C348.34,220.27,349.2,220.36,349.67,220.47Z" style="fill:#f7e964"/><path d="M379.83,203.6c.83-2.32,1.65-4.65,2.46-6.93-4.21-1.95-4.21-1.95-10.23-1.47,1.22-3.2,2.35-6.16,5.67-7.61a28.61,28.61,0,0,1,4.35,2.8c5,4.66,9.92,9.46,14.86,14.2l3.8,5v6.59L397.92,215c-.7-.81-1.35-1.67-2.12-2.4-.52-.48-1.54-.64-1.78-1.19-1.9-4.38-5.93-6.68-8.69-9.67Z" style="fill:#b6912a"/><path d="M355,193.86q-1.27,2-2.57,4a7.07,7.07,0,0,1-5.18-2.37c-5.4-5.56-11-11-16.41-16.51a14.75,14.75,0,0,1-1.88-3.27l8,0c.76.26,1.71.31,2.23.81q7.46,7.28,14.75,14.72A7.86,7.86,0,0,1,355,193.86Z" style="fill:#ddc049"/><path d="M337,175.7l-8,0-1,0a8.07,8.07,0,0,1,0-.85l5.59-.46c1.15-6,2.07-11.91-.72-17.73a34,34,0,0,1-1.28-3.72c2-.55,3.43.3,4.82,1.74,3.44,3.59,7,7.09,10.56,10.56,1.12,1.1,2.33,2.74,4,.53l1-3h0l1.19-.06c.26,1.88.61,3.75.74,5.64s0,3.55,0,5.58c1.45.27,2.51.55,3.59.65,4.27.41,4.5.64,4.57,5.12,0,1.31,0,2.62,0,3.92-1.55-1.63-3.18-3.19-4.61-4.92-1.8-2.16-3.88-3.52-6.91-3-.93-1.72-.72-3.63-2.77-5-3-1.93-5.25-5-7.86-7.53-.91-.89-1.92-1.67-3.1-2.69-2.1,3.05,1.13,5.6.16,8.21Z" style="fill:#c2a034"/><path d="M328,175.69l1,0a14.75,14.75,0,0,0,1.88,3.27c5.43,5.54,11,10.95,16.41,16.51a7.07,7.07,0,0,0,5.18,2.37,1.29,1.29,0,0,0-.22.62l-1.18.8,1.45.21c4.15,1.66,5.85,5.31,7.42,9.08l-8-1a8.21,8.21,0,0,0-1.15-2.58q-11.67-11.79-23.5-23.45a6.59,6.59,0,0,0-2.18-.9c-.26-2-.47-3.91,1.8-5Z" style="fill:#e8d153"/><path d="M619.31,223.35l1.29,1.28c-14,3.44-28,6.88-41.42,12.34-4.39,1.79-9,3.06-13.52,4.57-.34-1.39-.67-2.77-1-4.15,6.55-2.17,13.06-4.5,19.68-6.45,6-1.77,12-3.31,18.15-4.63C608.05,225.1,613.7,224.32,619.31,223.35Z" style="fill:#c7a637"/><path d="M418.93,112.94l-2.88,14-13.41-.17a42.17,42.17,0,0,1,4.09-13.88Z" style="fill:#faee6c"/><path d="M390.82,226.53c.58,4.11,1,8.15,5.81,10,1,.41,1.78,1,2.93.65s2.18-.48,3.27-.72c1.62,1.73,3.36,3.39,3.1,6.07l0,0c-1-.06-2-.16-2,1.27l-3.89,1.83c-6.55-6.4-13.12-12.78-19.64-19.22-.39-.39-.34-1.21-.5-1.82l-.08-1.14v0l1-2,0,0,1.1.07c2-.41,3.27.82,4.64,2.06A34.2,34.2,0,0,0,390.82,226.53Z" style="fill:#ddc049"/><path d="M361.82,35.17l-6.25.11c-.15-.28-.44-.56-.45-.85q-.57-15.6-1.07-31.21A18.83,18.83,0,0,1,354.58,0c.92.78,1.71,1.11,1.78,1.56C358.23,12.75,360,24,361.82,35.17Z" style="fill:#b6912a"/><path d="M402,84l23.94,0c-.57,2.37-1.15,4.73-1.73,7.1L401,91Q401.49,87.49,402,84Z" style="fill:#d2b23f"/><path d="M396.94,204.59c-4.94-4.74-9.84-9.54-14.86-14.2a28.61,28.61,0,0,0-4.35-2.8c.77-1.55,1.51-3.13,2.32-4.66.58-1.1,1.24-2.16,1.86-3.23a23.72,23.72,0,0,0,2.55,4c4.23,4.39,8.64,8.6,12.87,13a24.47,24.47,0,0,1,2.57,4C398.32,201.5,396.83,202.45,396.94,204.59Z" style="fill:#b69125"/><path d="M351.67,123.92l.27,10.92H347l-3.62-5.08c-2.33,3.68-4.18,7-4.46,11a21,21,0,0,1-1,2.33,17.88,17.88,0,0,1-1.47,1.93c.26-5.09.45-10.17.79-15.25.14-2,.59-3.89.9-5.84Z" style="fill:#eedb5c"/><path d="M336.43,145a17.88,17.88,0,0,0,1.47-1.93,21,21,0,0,0,1-2.33c2.76,2.23,5.49,4.48,8.3,6.65a5,5,0,0,0,1.86.46l3.94.86,4.45.39L353,159.79l.11,1.16.09,1.74-1.19.06c-.33-1.31-.27-3-1.08-3.86-2.51-2.75-5.5-5.06-8-7.8a6.65,6.65,0,0,0-6-2.35l-.58-1C336.32,146.8,336.37,145.89,336.43,145Z" style="fill:#b18b26"/><path d="M325.13,180.68a6.59,6.59,0,0,1,2.18.9q11.82,11.67,23.5,23.45a8.21,8.21,0,0,1,1.15,2.58l-2,1a72.51,72.51,0,0,1-6.45-6c-2.54-3-5.42-4.67-9.42-3.93.38-2.59-1.33-3.72-3.26-4.71a4.13,4.13,0,0,0-1.36-4.34c-1.63-1.55-3-3.32-4.53-5Z" style="fill:#eedb5c"/><path d="M400.16,104.92c0-2.66,0-5.32,0-8,4.06.34,8.11.8,12.17,1,3.46.16,6.93,0,10.4,0l-1.89,7Z" style="fill:#e8d153"/><path d="M182.18,209.38l-9,2.8c0-2.28,0-4.57,0-6.86,0-1.3-.74-1.67-1.86-1.66L174,202c-1.31-2.56-2.45-3.36-4.32-2.44a.92.92,0,0,0-.42-.43c.87-2.79-1.13-3.15-3-3.58l0,.06c-.13-.45-.27-.91-.41-1.36,6.61-.83,12.78,1.51,16.4,6.21A11,11,0,0,0,182.18,209.38Z" style="fill:#c2a034"/><path d="M379.92,224.6c.16.61.11,1.43.5,1.82,6.52,6.44,13.09,12.82,19.64,19.22l-4.56,1.92h-.31l-.31-.09c-.51-.66-.9-1.7-1.56-1.9a12.14,12.14,0,0,0-3.42-.11c-.26-.75-.31-1.7-.81-2.21q-5.86-6-11.91-11.89c-.51-.5-1.46-.57-2.2-.83l3.68-6Z" style="fill:#e8d153"/><path d="M337,175.7l0-6.95a14.59,14.59,0,0,1,3.29,1.85c6.29,6.16,12.47,12.42,18.73,18.6,1.24,1.22,2.24,2.43,1.94,4.29l-5.94.37a7.86,7.86,0,0,0-1.07-2.63q-7.27-7.46-14.75-14.72C338.68,176,337.73,176,337,175.7Z" style="fill:#d2b23f"/><path d="M422.75,98c-3.47,0-6.94.14-10.4,0-4.06-.19-8.11-.65-12.17-1l.81-6,23.22.17C423.72,93.41,423.24,95.68,422.75,98Z" style="fill:#ddc049"/><path d="M379.83,203.6l5.5-1.83c2.76,3,6.79,5.29,8.69,9.67.24.55,1.26.71,1.78,1.19.77.73,1.42,1.59,2.12,2.4-1.47,1.77-2.9,3.45-5.51,3.71-.88.09-1.65,1.26-2.47,1.94v-5.13l-5-2c-.41-3.58-2.14-5.55-6-5-1.5.21-2-.68-2-2v0l1-1.06,0,0,1-1.09Zm12.81,9.51-.31-.2,0,.33Z" style="fill:#c6a432"/><path d="M351.67,123.92l-13.55,0,1-12h11.78Z" style="fill:#faee6c"/><path d="M339.07,215.53c3.27.51,4.43,3.65,6.73,5.37,1.36,1,2.11,3.1,4.4,2.48a39.08,39.08,0,0,1,2.25,4.17c1.73,4.28,4.24,7.82,8.53,9.86.81,1.35,1.6,2.7,2.43,4s1.69,2.67,2.54,4l-3.05.05a3.68,3.68,0,0,1-.93-.1c-.39-1.18-.47-2.65-1.23-3.5-2.4-2.68-5-5.18-7.64-7.64-.51-.48-1.48-.47-2.23-.68-1.57-2.21-3.09-4.46-4.76-6.6a8.33,8.33,0,0,0-2.15-1.44c-2.12-1.2-4.89-1.75-5-5C339,218.89,339,217.21,339.07,215.53Z" style="fill:#e8d153"/><path d="M405,149.77c-.3-2.21-.6-4.42-1-7.23-5.09,4.4-6.77,9.84-8.71,15.17l-2.56-.13q2.64-8.37,5.3-16.75h15.73q-.92,4.47-1.84,9Z" style="fill:#ddc049"/><path d="M512.75,212.4l-7-2.08c-.09-4,.44-8-1.06-11.82,4.2-3.6,9.16-4.66,14.57-4.64v2.76h0c-3.38-.31-3.94.06-4.58,3l0,0c-3.24.35-3.64,1.12-1.89,3.67Q512.78,207.82,512.75,212.4Z" style="fill:#c2a034"/><path d="M400.16,104.92l20.7,0c-.64,2.67-1.29,5.33-1.93,8l-12.2-.07c0-.66.06-1.32.11-2.26C404.08,109.42,400.17,109.31,400.16,104.92Z" style="fill:#eedb5c"/><path d="M363.94,237.61l7.95-4.17c3.19,3,6.43,6,9.53,9.12a11.17,11.17,0,0,1,1.5,2.92l-14,0c-.83-1.31-1.65-2.62-2.49-3.92S364.78,238.91,363.94,237.61Z" style="fill:#f7e964"/><path d="M254.12,83c1.08-.64,2.14-1.79,3.25-1.83,4.93-.18,9.87-.09,14.8,0,.74,0,1.47.68,2.2,1L272.9,90c-1.8,0-3.61-.09-5.4.07a8.62,8.62,0,0,0-2.44,1C262.82,86.45,258.09,85.2,254.12,83Z" style="fill:#d2b23f"/><path d="M413.73,140.84H398l2.72-8.05,14.24.09Z" style="fill:#e8d153"/><path d="M287.85,138.85l3,10-1.86,1c-1.22-.81-3-1-3.13-3.06,0-.35-1.2-.64-1.84-1,.24-.87.48-1.75.95-3.42-3.18,1.94-2.91,4.23-3,6.4l-6.46.15c-.5-3-1-6.07-1.49-9.1C278.68,139.62,283.35,140.5,287.85,138.85Z" style="fill:#ddc049"/><path d="M280.25,115.65,284,126.87l-12,0-1.79-9c2.39-.33,4.8-.58,7.17-1A14,14,0,0,0,280.25,115.65Z" style="fill:#faee6c"/><path d="M288,179.7c-1-1.66-2-3.33-3-5h0l-1-2c0-.66,0-1.32,0-2,3.18.22,4.17,3.29,6.34,4.83,1.9,1.36,2.8,4.08,5.65,4.14l2,1c-.35,1.82.5,3.09,1.78,4.3,2.28,2.13,4.51,4.34,6.62,6.63a12.69,12.69,0,0,1,1.55,2.89l-2.93,1.2c-5.05-5.2-10.09-10.42-15.19-15.57C289.5,179.79,288.67,179.85,288,179.7Z" style="fill:#d2b23f"/><path d="M335.25,28.17h-5.31c1.38-8.76,2.75-17.52,4.17-26.28A1.86,1.86,0,0,1,335.5.41C335.79,9.9,336.43,19,335.25,28.17Z" style="fill:#ad8621"/><path d="M522.7,195.6c3.95-2.78,7.84-1.73,12.63.12a53.77,53.77,0,0,0-5.71,3c-.56.38-.56,1.57-.81,2.39l-1.08,9.32-3.07.18.05.07c.57-1.92-.53-2.18-2-2l0,0c-.33-.7-.65-1.4-1-2.1C523.66,203,522.32,199.24,522.7,195.6Z" style="fill:#c2a034"/><path d="M155.18,201.59c.39-.7.77-1.39,1.33-2.38l-6.23-3.16c4.06-3,8-2.53,11.94-.33,0,2.57-.12,5.16.1,7.71.08.89,1.06,1.7,1.63,2.54a37.14,37.14,0,0,0-3.08,2.78c-.41.45-.43,1.25-.63,1.89l0-.06-3.06-.15c-.33-2.16-.59-4.33-1-6.47A12,12,0,0,0,155.18,201.59Z" style="fill:#c2a034"/><path d="M308,194.55a12.69,12.69,0,0,0-1.55-2.89c-2.11-2.29-4.34-4.5-6.62-6.63-1.28-1.21-2.13-2.48-1.78-4.3l2.92-.9,5.81.61c-.2,4.54,2.51,7,5,9.5,1.41,1.44,2.64,2.87.81,5Z" style="fill:#ddc049"/><path d="M339.14,32.18c.46-10.46.84-20.93,2.06-31.3a5.55,5.55,0,0,1,.93,0c.14,0,.39.13.39.2q.21,15.54.4,31.09Z" style="fill:#b18b26"/><path d="M382.92,245.48a11.17,11.17,0,0,0-1.5-2.92c-3.1-3.11-6.34-6.09-9.53-9.12l3.09-2.9c.74.26,1.69.33,2.2.83q6,5.85,11.91,11.89c.5.51.55,1.46.81,2.21Z" style="fill:#eedb5c"/><path d="M287.85,138.85c-4.5,1.65-9.17.77-13.77,1-.37-2.33-.75-4.65-1.12-7h13Z" style="fill:#e8d153"/><path d="M340.13,80l10,.08.21,8.85-10.21,0Z" style="fill:#d2b23f"/><path d="M288,179.7c.63.15,1.46.09,1.85.48,5.1,5.15,10.14,10.37,15.19,15.57a2.81,2.81,0,0,1-.21.9l-3.63,1c-3.36-3.43-6.66-7.18-10.36-10.48A7.88,7.88,0,0,1,288,179.7Z" style="fill:#c6a432"/><path d="M336.84,148.74a6.65,6.65,0,0,1,6,2.35c2.51,2.74,5.5,5,8,7.8.81.88.75,2.55,1.08,3.86h0l-1,1c-.75-.26-1.7-.31-2.21-.81-4.35-4.23-8.62-8.54-13.13-13.05-1.31.43-3.58-1.28-4.83,1.26l-1.23-2,6.35-.49A4.22,4.22,0,0,0,336.84,148.74Z" style="fill:#bb972b"/><path d="M171.36,203.66c1.12,0,1.87.36,1.86,1.66,0,2.29,0,4.58,0,6.86-5,2.17-10.2,1.23-16.06,1.4l3.15-3,0,.06a41.74,41.74,0,0,0,5-2.42C167.4,206.85,169.34,205.19,171.36,203.66Z" style="fill:#b6912a"/><path d="M340.13,89l10.21,0,.06,8-10.28,0Q340.12,93,340.13,89Z" style="fill:#ddc049"/><path d="M340.12,97l10.28,0,.3,8-10.82,0Z" style="fill:#e8d153"/><path d="M415,132.87l-14.24-.09,1.92-6,13.41.17Z" style="fill:#eedb5c"/><path d="M284.05,170.72c0,.66,0,1.32,0,2-1.49,1.58.4,1.48,1,2h0c.32,2.46.64,4.91.94,7.29l-3.93,1.69h-1c-.74-4.53-1.51-9-2.21-13.58-.33-2.1-.54-4.22-.8-6.33h1.08c1.52,1.54,3.28,2.88,3.25,5.43C282.36,169.69,283.46,170.21,284.05,170.72Z" style="fill:#ccac3c"/><path d="M339.88,104.93l10.82,0c.05,2.34.1,4.67.16,7H339.08Z" style="fill:#f7e964"/><path d="M512.75,212.4q0-4.58.08-9.14c2.68,1.85,5.33,3.75,8.06,5.52.4.26,1.2-.08,1.82-.14l0,0c-.56,1.92.69,2,2,2l-.05-.07,3.15,2.85C522.33,213.47,517.46,214.34,512.75,212.4Z" style="fill:#b6912a"/><path d="M286,132.86H273l-1-6,12,0Z" style="fill:#f7e964"/><path d="M405.79,182.69h-4.61c0-1.44-.33-2.66.06-3.57,1.95-4.49,4.06-8.91,6.2-13.31.24-.49,1-.71,1.57-1.06Q407.41,173.72,405.79,182.69Z" style="fill:#ccac3c"/><path d="M182.82,244.78,181,243.07c1-1.28,2-2.59,3.1-3.81a32.83,32.83,0,0,0,8.07-16.66c.63-1.26-1.25-3.45,1.47-3.93C194.2,229.1,190.7,237.84,182.82,244.78Z" style="fill:#c2a034"/><path d="M330.78,151.15c1.25-2.54,3.52-.83,4.83-1.26,4.51,4.51,8.78,8.82,13.13,13.05.51.5,1.46.55,2.21.81v2c-1.64,2.21-2.85.57-4-.53-3.57-3.47-7.12-7-10.56-10.56-1.39-1.44-2.8-2.29-4.82-1.74C331.34,152.33,331.06,151.74,330.78,151.15Z" style="fill:#be9a2c"/><path d="M268.2,105.93l-1.34-7.88a49.55,49.55,0,0,0,5.18-.14,7.16,7.16,0,0,0,2.24-1.22q1.46,4.61,2.92,9.22Z" style="fill:#e8d153"/><path d="M504.69,198.5c1.5,3.84,1,7.86,1.06,11.82l-9-.78c-.06-.42-.12-.84-.17-1.26C498.37,204.27,500.61,200.62,504.69,198.5Z" style="fill:#c7a637"/><path d="M324.94,184.58c1.5,1.68,2.9,3.45,4.53,5a4.13,4.13,0,0,1,1.36,4.34l-13.9-.28Z" style="fill:#f7e964"/><path d="M405,149.77l6.93,0-2,11H405Z" style="fill:#d2b23f"/><path d="M145.32,206.74c-.36.31-.71.88-1.07.88-2.79,0-6.34-1.66-9.36-4.35,2.71-3.21,6.32-4.46,10.3-5Q145.25,202.51,145.32,206.74Z" style="fill:#bb972b"/><path d="M513.83,250.42l-3.23,1.09a38.8,38.8,0,0,1-15.13-16.9l1.4-1.35C501.39,240.1,507.4,245.47,513.83,250.42Z" style="fill:#bb972b"/><path d="M275.57,148.93l6.46-.15c0,2.49.05,5,0,7.46-.05,4.06-.07,4.06-4.56,4.61Q276.54,154.88,275.57,148.93Z" style="fill:#d2b23f"/><path d="M384.91,213.59l5,2v5.13a2.37,2.37,0,0,1-.17.91l-.6.58.82.36c.27,1.33.55,2.67.83,4a34.2,34.2,0,0,1-4.25-2.9c-1.37-1.24-2.6-2.47-4.64-2.06l-.14-1.14v.06c1.82-.47.9-1.93,1.07-3l0,0Z" style="fill:#d2b23f"/><path d="M135.24,267.33l0,3-16,2.72,0-3.44Z" style="fill:#c2a034"/><path d="M274.28,96.69A7.16,7.16,0,0,1,272,97.91a49.55,49.55,0,0,1-5.18.14l-1.8-7a8.62,8.62,0,0,1,2.44-1c1.79-.16,3.6-.06,5.4-.07Z" style="fill:#ddc049"/><path d="M155.18,201.59a12,12,0,0,1,1,2.37c.42,2.14.68,4.31,1,6.47-3.37,2-6.57,1.47-10.18-.7l3.05-3.26,0,0Z" style="fill:#b6912a"/><path d="M527.73,210.39l1.08-9.32,9.32,8.27C534.54,212.25,531.23,212.23,527.73,210.39Z" style="fill:#b6912a"/><path d="M268.2,105.93l9,0c.66,2,1.33,4,2,6l-10,0Z" style="fill:#eedb5c"/><path d="M353,148.7l-3.94-.86c.54-4.53-.82-8.76-2.08-13h4.95Q352.48,141.77,353,148.7Z" style="fill:#e8d153"/><path d="M164,206c-.57-.84-1.55-1.65-1.63-2.54-.22-2.55-.09-5.14-.1-7.71l4-.07,0-.06c-.44,2.43,1.59,2.75,3,3.58a.92.92,0,0,1,.42.43l1.3,1.77Z" style="fill:#ccac3c"/><path d="M313.08,260.27c1.18-.28,2.42-.94,3.52-.76,2.11.34,3.25-.81,4.44-2.1a7.52,7.52,0,0,0,6.11,2.09,38.82,38.82,0,0,1,4.83-.11h5l5,0h22c0,.27,0,.54,0,.81Z" style="fill:#b6912a"/><path d="M269.22,111.91l10,0c.35,1.25.71,2.5,1.06,3.76a14,14,0,0,1-2.87,1.21c-2.37.45-4.78.7-7.17,1Z" style="fill:#f7e964"/><path d="M405.93,242.56c.26-2.68-1.48-4.34-3.1-6.07l6.82-4,1.15-1.07-.05,0,1-1.06-.07-.1a8.37,8.37,0,0,1,.65,2.22,20.32,20.32,0,0,1-.43,3.16A10.58,10.58,0,0,1,405.93,242.56Z" style="fill:#c7a637"/><path d="M289,149.82l1.86-1,3.21,8.52,3.45-.39c-.24,3.8-.47,7.3-.69,10.81l-1.72,0c0-.34-.05-.68-.07-1l1.08-7.45c-5.95-.83-6.72-1.69-7.1-7.5C289,151.13,289,150.48,289,149.82Z" style="fill:#d2b23f"/><path d="M522.7,195.6c-.38,3.64,1,7.43-1,10.94-1.92-1.39-3.92-2.66-5.69-4.21-.71-.61-.9-1.81-1.33-2.74l0,0,4.58-3h0Z" style="fill:#ccac3c"/><path d="M541.69,198.68c3.56.38,6.36,2.15,9.17,4.72a14.19,14.19,0,0,1-7.79,3.43c-.46-.76-1.24-1.48-1.32-2.27C541.56,202.62,541.69,200.64,541.69,198.68Z" style="fill:#bb972b"/><path d="M150.05,206.51l0,0-4.77.27q-.07-4.23-.13-8.46c2.95-1.53,5.26.05,8,1.61C151.83,202,148.94,203.46,150.05,206.51Z" style="fill:#ccac3c"/><path d="M193.63,218.67c-2.72.48-.84,2.67-1.47,3.93-1.25.24-2.51.44-3.74.75-3.64.91-5.86.23-8-2.69,2,.59,3.75,1.69,5.47,1.57,4.83-.32,7.2-5.84,4.53-10.06a26.19,26.19,0,0,0-2.2-2.65v-1.94C193,209.84,193.57,214.12,193.63,218.67Z" style="fill:#d8bb4d"/><path d="M350,208.6l2-1,8,1c-.64.53-1.28,1.47-1.93,1.49a12.06,12.06,0,0,1-3.42-1c-1.86,3.84-5.7,6.55-4.9,11.37-.47-.11-1.33-.2-1.34-.35C348,216.16,346.84,212.07,350,208.6Z" style="fill:#ccac3c"/><path d="M188.2,207.58v1.94l-6-.14a11,11,0,0,1,.07-8.88C185.77,201.58,186.83,204.71,188.2,207.58Z" style="fill:#ccac3c"/><path d="M411.91,235.67a20.32,20.32,0,0,0,.43-3.16,8.37,8.37,0,0,0-.65-2.22l4.44-10.74h3.52Z" style="fill:#b6912a"/><path d="M295.13,167.77l1.72,0q2.07,6,4.13,12.08l-2.92.9c-.68-.34-1.35-.69-2-1-.39-1.65.82-3.61-1-5l0-4Z" style="fill:#c2a034"/><path d="M541.69,198.68c0,2-.13,3.94.06,5.88.08.79.86,1.51,1.32,2.27-3.83,1.2-3.83,1.2-7.05-2.89.55-.69,1.42-1.31,1.59-2.09a19.41,19.41,0,0,0,.12-3.9Z" style="fill:#c2a034"/><path d="M339.07,215.53c0,1.68-.06,3.36-.08,5l-1.16-.05c1.26-4.31-2.11-7-3.77-10.28-.38-.74-2.63-.53-4-.75.23-.57.48-1.62.71-1.61,1.76,0,3.7-.19,5.24.48C339.06,209.68,339.28,212.6,339.07,215.53Z" style="fill:#c7a637"/><path d="M384.91,213.59l-2.09,3.95c-1.05-2.52-2.09-5-3.29-7.93l-4.38.69c-.47-1.84.5-2.85,1.75-3.73,0,1.33.49,2.22,2,2C382.77,208,384.5,210,384.91,213.59Z" style="fill:#c2a034"/><path d="M390.74,165.34c.11,4.68.92,9.43-1.49,14.43L386,179Z" style="fill:#b69125"/><path d="M396.94,204.59c-.11-2.14,1.38-3.09,3-4l3.05,0c-.74,3-1.47,5.94-2.21,8.91Z" style="fill:#ccac3c"/><path d="M339.14,32.18h3.78v9l-4.1,0C338.93,38.12,339,35.15,339.14,32.18Z" style="fill:#b69125"/><path d="M496.58,208.28c.05.42.11.84.17,1.26-2.27,3.11-3.78,6.34-2.11,10.29.18.45-.48,1.25-.75,1.89L492,220.61c0-2.31-.46-4.71,0-6.91C492.54,211.31,493.77,209,496.58,208.28Z" style="fill:#d8bb4d"/><path d="M277.48,160.85c4.49-.55,4.51-.55,4.56-4.61,0-2.48,0-5,0-7.46.06-2.17-.21-4.46,3-6.4-.47,1.67-.71,2.55-.95,3.42-1.42,4.32-1.75,8.65,0,13l0,1.94-2,1c-1.38.08-3.2-.47-2.94,2H278Z" style="fill:#bb972b"/><path d="M289.07,214.46c3-2.7,4.55-2.61,6.07.54a17.63,17.63,0,0,1,.87,3.61A7.41,7.41,0,0,1,289.07,214.46Z" style="fill:#ccac3c"/><path d="M284.89,200.71a12.69,12.69,0,0,1,2.89,0c2,.46,2.72,1.73,1.92,3.54a38,38,0,0,1-2.69,4.37Z" style="fill:#ccac3c"/><path d="M537.73,198a19.41,19.41,0,0,1-.12,3.9c-.17.78-1,1.4-1.59,2.09l-5-4.41Z" style="fill:#d2b23f"/><path d="M334.17,228.58a3,3,0,0,1,1.44,4.5,29,29,0,0,1-3.6,4.44L331,233.4Z" style="fill:#b6912a"/><path d="M363.94,237.61c.84,1.3,1.69,2.6,2.52,3.91s1.66,2.61,2.49,3.92h-3c-.85-1.33-1.71-2.66-2.54-4s-1.62-2.69-2.43-4Z" style="fill:#eedb5c"/><path d="M495.16,221.83l7.28.4C500.11,224.14,498.79,224.13,495.16,221.83Z" style="fill:#d8bb4d"/><path d="M492,220.61l1.88,1.11.3,5.42-1,.88Q492.6,224.32,492,220.61Z" style="fill:#bb972b"/><path d="M496.87,233.26l-1.4,1.35-1.68-4.09,1.14-1.29C495.58,230.57,496.22,231.92,496.87,233.26Z" style="fill:#c2a034"/><path d="M290.93,251.46h4.92c-1.25,2.75-3.27,1.79-4.94,1.94Z" style="fill:#ad8621"/><path d="M388.94,261.41l-2.82-1,.4-1,2.38,1.05Z" style="fill:#b18b26"/><path d="M180,215.69c.05,1.18.11,2.36.16,3.55l-.62,0V215.7Z" style="fill:#d8bb4d"/><path d="M182.6,212.81h3.09l0,.46h-3.18Z" style="fill:#d8bb4d"/><path d="M382.86,217.49c-.17,1.07.75,2.53-1.07,3Z" style="fill:#c2a034"/><path d="M494.93,229.23l-1.14,1.29c-.2-.83-.41-1.67-.62-2.5l1-.88C494.44,227.84,494.69,228.53,494.93,229.23Z" style="fill:#bb972b"/><path d="M380.87,221.48l-1,2Z" style="fill:#c2a034"/><path d="M404,243.81c0-1.43,1-1.33,2-1.27Z" style="fill:#c7a637"/><path d="M328,175.69l-1.08,0,1.09-.87A8.07,8.07,0,0,0,328,175.69Z" style="fill:#ddc049"/><path d="M410.8,231.4l-1.15,1.07Z" style="fill:#b6912a"/><path d="M377.87,205.53l-1,1.06Z" style="fill:#c2a034"/><path d="M378.87,204.47l-1,1.09Z" style="fill:#c2a034"/><path d="M363.06,184.59l-1-1Z" style="fill:#c2a034"/><path d="M390,222.53l-.82-.36.6-.58A7.54,7.54,0,0,1,390,222.53Z" style="fill:#c6a432"/><path d="M353.06,161l-.11-1.16Z" style="fill:#c2a034"/><path d="M391.25,157.6l-1.14.17.19-.68Z" style="fill:#b69125"/><path d="M352.5,199.51l-1.45-.21,1.18-.8Z" style="fill:#ddc049"/><path d="M336.84,148.74a4.22,4.22,0,0,1-.94-.09l.36-.94Z" style="fill:#eedb5c"/><path d="M364.24,185.57l-1.22-1Z" style="fill:#c2a034"/><path d="M381.79,220.43l.14,1.14-1.1-.07Z" style="fill:#c2a034"/><path d="M181.07,214.07l-.18.31-.47-.35.34-.3Z" style="fill:#d8bb4d"/><path d="M409.12,164.11l.58-1.37Z" style="fill:#ccac3c"/><path d="M411.76,230.39l-1,1.06Z" style="fill:#b6912a"/><path d="M379.92,224.6l-1.26-.09,1.18-1Z" style="fill:#c2a034"/><path d="M322,246.48l-7,5-.17-3.9H296.6v-1.08Z" style="fill:#ad8621"/><polygon points="294.77 248 294.44 248.12 294.47 247.8 294.77 248" style="fill:#ad8621"/><path d="M329,248.4l1-1.93c2.46,0,4.93.09,7.39,0s5.08.54,8.12-.8c-3.48-3-5.24-6.93-9.49-8.12.65-1,1.31-2,2-3a12.44,12.44,0,0,1,2.93,1.5,69.37,69.37,0,0,1,6.31,6.29c2.09,2.47,4.5,3.71,7.74,3.17,2.8,1.54,3.08,4.17,3,7H347a17.27,17.27,0,0,1,2.52-1c1.63-.35,1.68-1.26,1.12-2.52a18.35,18.35,0,0,0-4.18-1.18c-3.16-.16-6.43-1.25-9.45.66Z" style="fill:#bb972b"/><path d="M355,245.48c-3.24.54-5.65-.7-7.74-3.17a69.37,69.37,0,0,0-6.31-6.29,12.44,12.44,0,0,0-2.93-1.5l1.9-3.51c2.31,2.28,4.4,4.27,6.41,6.34,1.29,1.33,2.55,2.56,4.62,2.13Z" style="fill:#c6a432"/><path d="M366,245.45h3l14,0h7a12.14,12.14,0,0,1,3.42.11c.66.2,1.05,1.24,1.56,1.9l-27.36,0c-1.82,0-3.75.31-4.62-1.93Z" style="fill:#d8bb4d"/><path d="M347,252.44h11l4.94.95-12.91.1-2,0-6,1h-5l-1,0a8.28,8.28,0,0,0-2.52-.95,57,57,0,0,1-10-.76l3.54-.31H347Z" style="fill:#d8bb4d"/><path d="M350,253.48l12.91-.1,1.05,6.05h-5v-5h-5Z" style="fill:#b18b26"/><path d="M350.87,233.58c.75.21,1.72.2,2.23.68,2.63,2.46,5.24,5,7.64,7.64.76.85.84,2.32,1.23,3.5C357.82,241.88,353.31,238.69,350.87,233.58Z" style="fill:#d8bb4d"/><path d="M336,237.53c4.25,1.19,6,5.12,9.49,8.12-3,1.34-5.64.69-8.12.8s-4.93,0-7.39,0Z" style="fill:#ad8621"/><path d="M332,259.39a38.82,38.82,0,0,0-4.83.11,7.52,7.52,0,0,1-6.11-2.09c1.09-2.39,3-3.2,5.54-3,1.78.15,3.59.06,5.39.07C332,256.12,332,257.75,332,259.39Z" style="fill:#f7e964"/><path d="M336.94,252.43H327c-1.34-2.83-1.2-3.13,2-4l8,0,1.82,1.42Z" style="fill:#f7e964"/><path d="M332,259.39c0-1.64,0-3.27,0-4.9l4,0,1,0v4.93Z" style="fill:#eedb5c"/><path d="M351,165.76v-2l1-1Z" style="fill:#b18b26"/><path d="M347,134.83c1.26,4.25,2.62,8.48,2.08,13a5,5,0,0,1-1.86-.46c-2.81-2.17-5.54-4.42-8.3-6.65.28-4,2.13-7.3,4.46-11Z" style="fill:#a8801d"/><polygon points="392.64 213.11 392.3 213.24 392.33 212.91 392.64 213.11" style="fill:#b6912a"/><path d="M284,158.78c-1.71-4.33-1.38-8.66,0-13,.64.32,1.82.61,1.84,1,.11,2.08,1.91,2.25,3.13,3.06,0,.66,0,1.31,0,2,.38,5.81,1.15,6.67,7.1,7.5l-1.08,7.45c-3-.15-4-3-6-4.51C287.39,161,286.58,158.63,284,158.78Z" style="fill:#f7e964"/><path d="M279.12,163.75c-.26-2.47,1.56-1.92,2.94-2,.14.62.09,1.43.47,1.82q5.27,5.42,10.7,10.68c.39.38,1.21.32,1.83.46,1.8,1.37.59,3.33,1,5-2.85-.06-3.75-2.78-5.65-4.14-2.17-1.54-3.16-4.61-6.34-4.83-.59-.51-1.69-1-1.68-1.54C282.4,166.63,280.64,165.29,279.12,163.75Z" style="fill:#ddc049"/><path d="M285.06,174.71c-.6-.53-2.49-.43-1-2Z" style="fill:#b6912a"/><path d="M350,253.48l4,1v5h-6v-6Z" style="fill:#c7a637"/><path d="M348,253.46v6h-6v-5Z" style="fill:#d2b23f"/><path d="M342,254.46v5l-5,0v-4.93Z" style="fill:#e8d153"/><path d="M354,259.43v-5h5v5Z" style="fill:#be9a2c"/><path d="M284,158.78c2.57-.15,3.38,2.25,5,3.45,2,1.49,3,4.36,6,4.51,0,.35,0,.69.07,1l-.09,2.95c-.62-.14-1.45-.09-1.83-.47-3.11-3.13-6.13-6.34-9.18-9.53Z" style="fill:#eedb5c"/><path d="M284,160.72c3.05,3.19,6.07,6.4,9.18,9.53.38.38,1.21.33,1.83.47,0,1.33,0,2.66,0,4-.62-.14-1.44-.08-1.83-.46q-5.43-5.26-10.7-10.68c-.38-.39-.33-1.2-.47-1.82Z" style="fill:#e8d153"/><path d="M336.94,252.43l1.85-2.59L337,248.42c3-1.91,6.29-.82,9.45-.66a18.35,18.35,0,0,1,4.18,1.18c.56,1.26.51,2.17-1.12,2.52a17.27,17.27,0,0,0-2.52,1Z" style="fill:#d2b23f"/></g></g></svg>